<svg width="102" height="102" viewBox="0 0 102 102" fill="none" xmlns="http://www.w3.org/2000/svg">
<path d="M92.4375 13.252C92.4123 10.631 91.3551 8.12545 89.4949 6.27872C87.6348 4.43199 85.1216 3.39289 82.5005 3.38672L19.4517 3.1875C16.8332 3.18802 14.3218 4.2268 12.468 6.07611C10.6142 7.92542 9.56936 10.4343 9.5625 13.0528V78.0938C9.5625 83.5324 14.0011 87.6562 19.4517 87.6562H73.3125L70.7227 78.8906L92.4375 98.8125V13.252ZM64.6764 65.7043C64.6764 65.7043 62.9392 63.6345 61.4889 61.8554C67.8121 60.0744 70.2246 56.1797 70.2246 56.1797C68.4879 57.3317 66.6267 58.2841 64.6764 59.0186C62.4245 59.9536 60.0799 60.6474 57.6818 61.0884C53.5499 61.8474 49.3128 61.8312 45.1868 61.0406C42.7598 60.5899 40.3844 59.8958 38.0966 58.9688C36.8863 58.5052 35.7095 57.9587 34.5744 57.3332C34.429 57.2375 34.2855 57.1897 34.1401 57.0921C34.0425 57.0443 33.9947 56.9965 33.9409 56.9965C33.0723 56.5144 32.5902 56.1777 32.5902 56.1777C32.5902 56.1777 34.9051 59.9808 41.0331 61.8076C39.5848 63.6364 37.7998 65.7541 37.7998 65.7541C27.1396 65.4175 23.0875 58.4886 23.0875 58.4886C23.0875 43.1368 30.0342 30.6737 30.0342 30.6737C36.981 25.5239 43.5412 25.6693 43.5412 25.6693L44.0234 26.2471C35.3394 28.7014 31.3849 32.5025 31.3849 32.5025C31.3849 32.5025 32.4448 31.9248 34.2298 31.1538C39.3915 28.8927 43.4934 28.315 45.1868 28.1237C45.4571 28.0675 45.7317 28.0349 46.0076 28.0261C49.2401 27.6066 52.5112 27.5745 55.7514 27.9305C60.8389 28.5149 65.7678 30.0668 70.2724 32.5025C70.2724 32.5025 66.4614 28.8867 58.2595 26.4363L58.9349 25.6673C58.9349 25.6673 65.543 25.5219 72.4439 30.6797C72.4439 30.6797 79.3907 43.1428 79.3907 58.4946C79.3907 58.4388 75.3366 65.3677 64.6764 65.7043Z" fill="url(#paint0_linear)"/>
<path d="M42.2443 43.4297C39.4951 43.4297 37.3236 45.7884 37.3236 48.7229C37.3236 51.6574 39.5429 54.0162 42.2443 54.0162C44.9935 54.0162 47.165 51.6594 47.165 48.7229C47.2148 45.7825 44.9935 43.4297 42.2443 43.4297ZM59.8513 43.4297C57.102 43.4297 54.9306 45.7884 54.9306 48.7229C54.9306 51.6574 57.1499 54.0162 59.8513 54.0162C62.6025 54.0162 64.772 51.6594 64.772 48.7229C64.772 45.7864 62.5547 43.4297 59.8513 43.4297Z" fill="url(#paint1_linear)"/>
<defs>
<linearGradient id="paint0_linear" x1="92.7273" y1="3.09091" x2="5.79546" y2="96.2045" gradientUnits="userSpaceOnUse">
<stop stop-color="#982649"/>
<stop offset="1" stop-color="#F71735"/>
</linearGradient>
<linearGradient id="paint1_linear" x1="51.0478" y1="43.4297" x2="51.0478" y2="54.0162" gradientUnits="userSpaceOnUse">
<stop stop-color="#982649"/>
<stop offset="1" stop-color="#F71735"/>
</linearGradient>
</defs>
</svg>
