<svg width="32" height="30" viewBox="0 0 32 30" fill="none" xmlns="http://www.w3.org/2000/svg">
<path d="M9.33325 12.207L15.5953 28.7238H16.3399L22.602 12.207H9.33325Z" fill="#951436"/>
<path d="M14.6077 28.1731C14.8692 28.4678 15.221 28.6512 15.5953 28.7238L9.33316 12.207L0.580502 9.4501C0.620315 9.74592 -0.325681 8.34623 14.6077 28.1731Z" fill="#F71735"/>
<path d="M3.67871 10.426L0.580473 9.4501C0.62041 9.74592 -0.325648 8.34623 14.6078 28.1731C14.8014 28.3913 15.0448 28.5482 15.3099 28.6445L3.67871 10.426Z" fill="#F95D72"/>
<path d="M5.75195 2.64148L9.33306 12.2071L15.9674 4.6386L5.87295 2.58142C5.82908 2.60048 5.78852 2.62067 5.75195 2.64148Z" fill="#F71735"/>
<path d="M22.6017 12.207L16.3396 28.7238C16.7138 28.6512 17.0657 28.4678 17.3272 28.1731C21.2106 23.0293 31.4004 9.5504 31.431 9.42596L22.6017 12.207Z" fill="#F71735"/>
<path d="M22.6019 12.207L26.1818 2.64455C26.1395 2.62055 26.0976 2.60018 26.0567 2.58243L15.9675 4.63855L22.6019 12.207Z" fill="#F71735"/>
<path d="M9.33325 12.207H22.602L15.9676 4.63855L9.33325 12.207Z" fill="#A52446"/>
<path d="M5.75205 2.64151C5.51592 2.77582 5.47942 2.8552 5.10824 3.33138C0.274943 9.52917 0.527817 9.06055 0.580442 9.45011L9.33316 12.2071L5.75205 2.64151Z" fill="#951436"/>
<path d="M3.67862 10.426L5.81167 2.80082L5.75205 2.64145C5.51592 2.77576 5.47942 2.85514 5.10824 3.33132C0.274943 9.52924 0.527817 9.06055 0.580442 9.45011L3.67862 10.426Z" fill="#A52446"/>
<path d="M22.6018 12.207L31.4311 9.42591C31.4561 9.29629 31.4185 9.2196 31.3557 9.13904C26.9772 3.51812 26.3699 2.69038 26.1817 2.6445L22.6018 12.207Z" fill="#951436"/>
<path d="M15.9676 4.63856L26.0568 2.58244C25.8445 2.49031 25.6752 2.477 25.6689 2.47581L17.5375 1.38063C14.9793 1.03607 13.8767 1.55688 6.24492 2.47875C6.23317 2.48131 6.06911 2.49606 5.87305 2.58138L15.9676 4.63856Z" fill="#A52446"/>
<path d="M26.303 2.08782L17.6321 0.919948C15.4463 0.625511 13.9616 1.0082 13.2035 1.07676C12.9491 1.11101 12.7706 1.34507 12.8048 1.59951C12.8391 1.85394 13.0734 2.03276 13.3276 1.99819C14.0964 1.92769 15.4753 1.56776 17.5079 1.84138L23.4623 2.64338C23.0167 2.73419 16.4458 4.07319 15.9999 4.16406L8.53765 2.64338L11.117 2.29594C11.3715 2.26169 11.5499 2.02763 11.5157 1.77319C11.4815 1.5187 11.2469 1.3402 10.993 1.37451L5.69735 2.08776C5.6966 2.08782 5.69585 2.08794 5.6951 2.08807L5.6881 2.08901C5.68098 2.09001 5.67404 2.09157 5.66698 2.09282C5.66242 2.09369 5.65773 2.09432 5.65323 2.09532C5.64942 2.09613 5.6456 2.09694 5.64185 2.09782C5.63654 2.09913 5.63129 2.10069 5.62604 2.10213C5.61792 2.10438 5.60979 2.10657 5.60179 2.10926C5.59848 2.11038 5.59535 2.11176 5.59204 2.11294C5.5906 2.11344 5.58917 2.11401 5.58779 2.11457C5.58317 2.11632 5.57835 2.11794 5.57379 2.11976C5.56542 2.12319 5.55729 2.12701 5.54917 2.13094C5.5456 2.13263 5.5421 2.13419 5.5386 2.13594C5.53473 2.13794 5.53085 2.13988 5.52704 2.14194C5.52335 2.14394 5.51985 2.14619 5.51617 2.14838C5.31429 2.26601 5.41285 2.27432 0.0983123 9.04129C-0.0121873 9.18304 -0.0311872 9.37573 0.0496875 9.53629C0.236812 9.90754 -0.260874 9.17473 9.9984 22.7926C10.153 22.9976 10.4445 23.0384 10.6495 22.8837C10.8545 22.7291 10.8952 22.4376 10.7406 22.2326L1.72949 10.2892L9.01084 12.5827C9.18546 13.0433 14.5189 27.1105 14.6178 27.3715L12.052 23.9709C11.8974 23.7659 11.606 23.7251 11.4009 23.8797C11.1959 24.0344 11.1552 24.3259 11.3098 24.5309C13.9964 28.091 14.2733 28.46 14.2924 28.4815C14.6318 28.8641 15.1013 29.106 15.5503 29.1818C15.6167 29.1931 16.3956 29.1929 16.4608 29.1802C17.0269 29.0702 17.5051 28.7504 17.7309 28.4531L26.8055 16.4255C26.96 16.2205 26.9193 15.929 26.7143 15.7743C26.5092 15.6198 26.2179 15.6606 26.0632 15.8655L17.382 27.3718C17.6593 26.6404 22.7853 13.1203 22.9891 12.5828L30.2705 10.2893L27.37 14.1335C27.2155 14.3385 27.2561 14.63 27.4611 14.7846C27.6662 14.9393 27.9576 14.8985 28.1123 14.6935C32.0061 9.52767 31.7963 9.84079 31.95 9.5371C32.0312 9.37642 32.0124 9.18335 31.9017 9.04142C26.3625 1.93894 26.5988 2.11688 26.303 2.08782ZM21.6086 11.7422H10.3913L15.9999 5.34374L21.6086 11.7422ZM1.19562 9.14629L5.60592 3.49056L8.59597 11.4773L1.19562 9.14629ZM6.47985 3.17288C7.40035 3.36044 14.0007 4.70556 15.1226 4.93418L9.5284 11.3161L6.47985 3.17288ZM16.0513 28.259H15.9487L10.039 12.6718H21.961L16.0513 28.259ZM22.4715 11.316L16.8772 4.93418C17.6214 4.7825 24.3757 3.40613 25.52 3.17288L22.4715 11.316ZM23.4039 11.4773L26.394 3.4905L30.8043 9.14617L23.4039 11.4773Z" fill="#0C0A09"/>
</svg>
