<svg width="124" height="21" viewBox="0 0 124 21" fill="none" xmlns="http://www.w3.org/2000/svg">
<path d="M1.25911 16H7.7023V14.6776H2.79534V11.5604H7.30954V10.2429H2.79534V7.14062H7.64264V5.81818H1.25911V16ZM19.3827 5.81818H17.8614V13.2955H17.7669L12.5865 5.81818H11.1647V16H12.7009V8.53267H12.7953L17.9708 16H19.3827V5.81818ZM22.5915 7.14062H25.7634V16H27.2946V7.14062H30.4715V5.81818H22.5915V7.14062ZM33.6828 16H40.126V14.6776H35.219V11.5604H39.7332V10.2429H35.219V7.14062H40.0663V5.81818H33.6828V16ZM43.5883 16H45.1246V12.147H47.2126C47.2474 12.147 47.2773 12.147 47.3121 12.147L49.3802 16H51.1302L48.8731 11.8786C50.121 11.4162 50.7425 10.3771 50.7425 9.00994C50.7425 7.13565 49.5791 5.81818 47.2176 5.81818H43.5883V16ZM45.1246 10.8246V7.13565H47.0535C48.5699 7.13565 49.1963 7.85653 49.1963 9.00994C49.1963 10.1584 48.5699 10.8246 47.0734 10.8246H45.1246ZM67.4749 5.81818H65.9536V13.2955H65.8591L60.6787 5.81818H59.2568V16H60.7931V8.53267H60.8875L66.063 16H67.4749V5.81818ZM80.0303 10.9091C80.0303 7.6527 78.0814 5.67898 75.4465 5.67898C72.8016 5.67898 70.8577 7.6527 70.8577 10.9091C70.8577 14.1605 72.8016 16.1392 75.4465 16.1392C78.0814 16.1392 80.0303 14.1655 80.0303 10.9091ZM78.509 10.9091C78.509 13.3899 77.1965 14.7372 75.4465 14.7372C73.6915 14.7372 72.384 13.3899 72.384 10.9091C72.384 8.42827 73.6915 7.08097 75.4465 7.08097C77.1965 7.08097 78.509 8.42827 78.509 10.9091ZM85.2862 16H86.8373L88.9801 8.37358H89.0596L91.2024 16H92.7485L95.5774 5.81818H93.9566L91.9779 13.7081H91.8835L89.8203 5.81818H88.2194L86.1562 13.7031H86.0617L84.0781 5.81818H82.4623L85.2862 16Z" fill="url(#paint0_linear)"/>
<path d="M118.041 5L122.887 9.65206L118.041 14.3041M122.214 9.65206H108" stroke="#A52446" stroke-width="1.5" stroke-linecap="round" stroke-linejoin="round"/>
<defs>
<linearGradient id="paint0_linear" x1="104.096" y1="-3.8864e-06" x2="2.90841" y2="26.7512" gradientUnits="userSpaceOnUse">
<stop stop-color="#982649"/>
<stop offset="1" stop-color="#F71735"/>
</linearGradient>
</defs>
</svg>
