<svg width="47" height="47" viewBox="0 0 47 47" fill="none" xmlns="http://www.w3.org/2000/svg">
<path d="M32.0674 6.36428C34.3378 6.37106 36.5132 7.27597 38.1186 8.88137C39.724 10.4868 40.6289 12.6622 40.6357 14.9326V32.0674C40.6289 34.3378 39.724 36.5132 38.1186 38.1186C36.5132 39.724 34.3378 40.6289 32.0674 40.6357H14.9326C12.6622 40.6289 10.4868 39.724 8.88137 38.1186C7.27597 36.5132 6.37106 34.3378 6.36428 32.0674V14.9326C6.37106 12.6622 7.27597 10.4868 8.88137 8.88137C10.4868 7.27597 12.6622 6.37106 14.9326 6.36428H32.0674ZM32.0674 2.9375H14.9326C8.33516 2.9375 2.9375 8.33516 2.9375 14.9326V32.0674C2.9375 38.6648 8.33516 44.0625 14.9326 44.0625H32.0674C38.6648 44.0625 44.0625 38.6648 44.0625 32.0674V14.9326C44.0625 8.33516 38.6648 2.9375 32.0674 2.9375Z" fill="url(#paint0_linear)"/>
<path d="M34.6377 14.9326C34.1294 14.9326 33.6324 14.7819 33.2097 14.4994C32.787 14.217 32.4576 13.8156 32.2631 13.3459C32.0685 12.8763 32.0176 12.3595 32.1168 11.8609C32.216 11.3623 32.4608 10.9043 32.8202 10.5448C33.1797 10.1854 33.6377 9.94056 34.1363 9.84138C34.6349 9.74221 35.1517 9.79311 35.6213 9.98765C36.091 10.1822 36.4924 10.5116 36.7749 10.9343C37.0573 11.357 37.208 11.8539 37.208 12.3623C37.2088 12.7 37.1428 13.0346 37.0139 13.3468C36.8849 13.659 36.6956 13.9426 36.4568 14.1814C36.218 14.4202 35.9344 14.6095 35.6222 14.7384C35.31 14.8674 34.9755 14.9333 34.6377 14.9326ZM23.5 16.6455C24.8557 16.6455 26.1809 17.0476 27.3081 17.8007C28.4354 18.5539 29.3139 19.6244 29.8327 20.8769C30.3515 22.1294 30.4873 23.5076 30.2228 24.8373C29.9583 26.1669 29.3055 27.3882 28.3468 28.3469C27.3882 29.3055 26.1669 29.9583 24.8372 30.2228C23.5076 30.4873 22.1294 30.3515 20.8769 29.8327C19.6244 29.3139 18.5539 28.4354 17.8007 27.3082C17.0475 26.1809 16.6455 24.8557 16.6455 23.5C16.6475 21.6827 17.3703 19.9404 18.6553 18.6553C19.9403 17.3703 21.6827 16.6475 23.5 16.6455ZM23.5 13.2188C21.4666 13.2188 19.4788 13.8218 17.788 14.9515C16.0973 16.0812 14.7795 17.6869 14.0014 19.5656C13.2232 21.4442 13.0196 23.5114 13.4163 25.5058C13.813 27.5002 14.7922 29.3321 16.2301 30.77C17.6679 32.2078 19.4999 33.187 21.4942 33.5837C23.4886 33.9804 25.5558 33.7768 27.4345 32.9987C29.3131 32.2205 30.9188 30.9027 32.0486 29.212C33.1783 27.5212 33.7813 25.5335 33.7813 23.5C33.7813 20.7733 32.6981 18.1582 30.7699 16.2301C28.8418 14.302 26.2268 13.2188 23.5 13.2188Z" fill="url(#paint1_linear)"/>
<defs>
<linearGradient id="paint0_linear" x1="23.5" y1="2.9375" x2="23.5" y2="44.0625" gradientUnits="userSpaceOnUse">
<stop stop-color="#982649"/>
<stop offset="1" stop-color="#F71735"/>
</linearGradient>
<linearGradient id="paint1_linear" x1="25.2134" y1="9.79199" x2="25.2134" y2="33.7813" gradientUnits="userSpaceOnUse">
<stop stop-color="#982649"/>
<stop offset="1" stop-color="#F71735"/>
</linearGradient>
</defs>
</svg>
