<svg width="60" height="60" viewBox="0 0 60 60" fill="none" xmlns="http://www.w3.org/2000/svg">
<g filter="url(#filter0_d)">
<rect x="8" y="4" width="44" height="44" rx="22" fill="white"/>
</g>
<path d="M34.3748 17.2498C35.5342 17.2533 36.6451 17.7154 37.4648 18.5352C38.2846 19.3549 38.7467 20.4658 38.7502 21.6252V30.3748C38.7467 31.5342 38.2846 32.6451 37.4648 33.4648C36.6451 34.2846 35.5342 34.7467 34.3748 34.7502H25.6252C24.4658 34.7467 23.3549 34.2846 22.5352 33.4648C21.7154 32.6451 21.2533 31.5342 21.2498 30.3748V21.6252C21.2533 20.4658 21.7154 19.3549 22.5352 18.5352C23.3549 17.7154 24.4658 17.2533 25.6252 17.2498H34.3748ZM34.3748 15.5H25.6252C22.2562 15.5 19.5 18.2562 19.5 21.6252V30.3748C19.5 33.7437 22.2562 36.5 25.6252 36.5H34.3748C37.7437 36.5 40.5 33.7437 40.5 30.3748V21.6252C40.5 18.2562 37.7437 15.5 34.3748 15.5Z" fill="url(#paint0_linear)"/>
<path d="M35.6873 21.6251C35.4278 21.6251 35.174 21.5481 34.9582 21.4039C34.7423 21.2597 34.5741 21.0547 34.4748 20.8149C34.3754 20.5751 34.3494 20.3112 34.4001 20.0566C34.4507 19.802 34.5757 19.5681 34.7593 19.3845C34.9428 19.201 35.1767 19.076 35.4313 19.0253C35.6859 18.9747 35.9498 19.0007 36.1896 19.1C36.4294 19.1994 36.6344 19.3676 36.7786 19.5834C36.9229 19.7993 36.9998 20.053 36.9998 20.3126C37.0002 20.4851 36.9665 20.6559 36.9007 20.8153C36.8349 20.9747 36.7382 21.1196 36.6163 21.2415C36.4943 21.3635 36.3495 21.4601 36.1901 21.526C36.0306 21.5918 35.8598 21.6255 35.6873 21.6251ZM30 22.4998C30.6923 22.4998 31.369 22.7051 31.9446 23.0897C32.5202 23.4743 32.9688 24.0209 33.2337 24.6605C33.4986 25.3001 33.568 26.0038 33.4329 26.6828C33.2978 27.3618 32.9645 27.9854 32.475 28.475C31.9855 28.9645 31.3618 29.2978 30.6828 29.4329C30.0039 29.5679 29.3001 29.4986 28.6606 29.2337C28.021 28.9688 27.4743 28.5201 27.0897 27.9445C26.7051 27.369 26.4998 26.6922 26.4998 26C26.5008 25.072 26.8699 24.1823 27.5261 23.5261C28.1823 22.8699 29.072 22.5008 30 22.4998ZM30 20.75C28.9617 20.75 27.9466 21.0579 27.0833 21.6348C26.2199 22.2116 25.547 23.0316 25.1496 23.9909C24.7523 24.9502 24.6483 26.0058 24.8509 27.0242C25.0535 28.0426 25.5535 28.9781 26.2877 29.7123C27.0219 30.4465 27.9574 30.9465 28.9758 31.1491C29.9942 31.3517 31.0498 31.2477 32.0091 30.8503C32.9684 30.453 33.7883 29.7801 34.3652 28.9167C34.9421 28.0534 35.25 27.0383 35.25 26C35.25 24.6076 34.6969 23.2722 33.7123 22.2877C32.7277 21.3031 31.3924 20.75 30 20.75Z" fill="url(#paint1_linear)"/>
<defs>
<filter id="filter0_d" x="0" y="0" width="60" height="60" filterUnits="userSpaceOnUse" color-interpolation-filters="sRGB">
<feFlood flood-opacity="0" result="BackgroundImageFix"/>
<feColorMatrix in="SourceAlpha" type="matrix" values="0 0 0 0 0 0 0 0 0 0 0 0 0 0 0 0 0 0 127 0" result="hardAlpha"/>
<feOffset dy="4"/>
<feGaussianBlur stdDeviation="4"/>
<feComposite in2="hardAlpha" operator="out"/>
<feColorMatrix type="matrix" values="0 0 0 0 0 0 0 0 0 0 0 0 0 0 0 0 0 0 0.05 0"/>
<feBlend mode="normal" in2="BackgroundImageFix" result="effect1_dropShadow"/>
<feBlend mode="normal" in="SourceGraphic" in2="effect1_dropShadow" result="shape"/>
</filter>
<linearGradient id="paint0_linear" x1="30" y1="15.5" x2="30" y2="36.5" gradientUnits="userSpaceOnUse">
<stop stop-color="#982649"/>
<stop offset="1" stop-color="#F71735"/>
</linearGradient>
<linearGradient id="paint1_linear" x1="30.8749" y1="19.0001" x2="30.8749" y2="31.25" gradientUnits="userSpaceOnUse">
<stop stop-color="#982649"/>
<stop offset="1" stop-color="#F71735"/>
</linearGradient>
</defs>
</svg>
