<svg width="24" height="24" viewBox="0 0 24 24" fill="none" xmlns="http://www.w3.org/2000/svg">
<path d="M5.94371 11.6391C7.80465 8.89219 9.59527 7.28907 9.59527 7.28907C9.59527 7.28907 7.62183 4.99688 5.24527 4.12969L5.09058 4.09219C3.09175 5.83994 1.8288 8.27969 1.55573 10.9208C1.28267 13.5619 2.01974 16.2084 3.61871 18.3281C3.61871 18.1219 3.64683 15.0328 5.94371 11.6391ZM22.5 12C22.501 10.5019 22.1811 9.02098 21.5618 7.65691C20.9424 6.29285 20.038 5.07733 18.9093 4.09219L18.7593 4.13438C16.3828 5.00157 14.4046 7.29376 14.4046 7.29376C14.4046 7.29376 16.1953 8.89688 18.0562 11.6438C20.3531 15.0375 20.3812 18.1266 20.3765 18.3328C21.7585 16.5112 22.5045 14.2865 22.5 12ZM9.43121 3.79219C10.8046 4.40626 11.9906 5.41407 11.9906 5.41407C11.9906 5.41407 13.1859 4.41094 14.5593 3.79219C16.2843 3.01876 17.6015 3.26251 17.9484 3.34688C16.1979 2.14395 14.1239 1.5 12 1.5C9.87601 1.5 7.80198 2.14395 6.05152 3.34688C6.38902 3.26251 7.70152 3.01407 9.43121 3.79219ZM16.814 13.7297C14.6437 11.0625 11.9906 9.32813 11.9906 9.32813C11.9906 9.32813 9.35152 11.0625 7.17652 13.7297C5.31089 16.0219 4.61714 17.7047 4.24214 18.7828L4.18121 19.0078C5.166 20.1065 6.37128 20.9853 7.71847 21.5869C9.06567 22.1885 10.5245 22.4995 12 22.4995C13.4754 22.4995 14.9342 22.1885 16.2814 21.5869C17.6286 20.9853 18.8339 20.1065 19.8187 19.0078L19.7531 18.7828C19.3781 17.7047 18.6796 16.0219 16.814 13.7297Z" fill="#0C0A09"/>
</svg>
