<svg width="80" height="80" viewBox="0 0 80 80" fill="none" xmlns="http://www.w3.org/2000/svg">
<path d="M66.25 12.5H13.75C11.4301 12.5025 9.20596 13.4252 7.56556 15.0656C5.92515 16.706 5.00248 18.9301 5 21.25V58.75C5.00248 61.0699 5.92515 63.294 7.56556 64.9344C9.20596 66.5749 11.4301 67.4975 13.75 67.5H66.25C68.5699 67.4975 70.794 66.5749 72.4344 64.9344C74.0749 63.294 74.9975 61.0699 75 58.75V21.25C74.9975 18.9301 74.0749 16.706 72.4344 15.0656C70.794 13.4252 68.5699 12.5025 66.25 12.5ZM64.0344 26.9734L41.5344 44.4734C41.0956 44.8145 40.5557 44.9997 40 44.9997C39.4443 44.9997 38.9044 44.8145 38.4656 44.4734L15.9656 26.9734C15.7013 26.7738 15.4792 26.5236 15.3124 26.2374C15.1456 25.9512 15.0373 25.6347 14.9938 25.3063C14.9504 24.9779 14.9726 24.6442 15.0593 24.3244C15.1459 24.0047 15.2953 23.7054 15.4986 23.4439C15.7019 23.1824 15.9552 22.9639 16.2437 22.8011C16.5322 22.6383 16.8502 22.5345 17.1792 22.4956C17.5082 22.4568 17.8416 22.4838 18.1601 22.5749C18.4786 22.666 18.7757 22.8196 19.0344 23.0266L40 39.3328L60.9656 23.0266C61.4899 22.6307 62.1489 22.457 62.8002 22.5432C63.4514 22.6294 64.0426 22.9684 64.4459 23.4871C64.8491 24.0057 65.032 24.6622 64.955 25.3146C64.878 25.967 64.5473 26.5629 64.0344 26.9734Z" fill="url(#paint0_linear)"/>
<defs>
<linearGradient id="paint0_linear" x1="78.5" y1="13" x2="0.499998" y2="65" gradientUnits="userSpaceOnUse">
<stop stop-color="#982649"/>
<stop offset="1" stop-color="#F71735"/>
</linearGradient>
</defs>
</svg>
