<svg width="24" height="25" viewBox="0 0 24 25" fill="none" xmlns="http://www.w3.org/2000/svg">
<g clip-path="url(#clip0)">
<path d="M17.375 1H8.625C7.17525 1 6 2.02974 6 3.3V21.7C6 22.9703 7.17525 24 8.625 24H17.375C18.8247 24 20 22.9703 20 21.7V3.3C20 2.02974 18.8247 1 17.375 1Z" stroke="#0C0A09" stroke-width="2" stroke-linecap="round" stroke-linejoin="round"/>
<path d="M9 0.767822H10.125C10.2245 0.767822 10.3198 0.808272 10.3902 0.880272C10.4605 0.952273 10.5 1.04993 10.5 1.15175C10.5 1.3554 10.579 1.55071 10.7197 1.69471C10.8603 1.83871 11.0511 1.91961 11.25 1.91961H14.25C14.4489 1.91961 14.6397 1.83871 14.7803 1.69471C14.921 1.55071 15 1.3554 15 1.15175C15 1.04993 15.0395 0.952273 15.1098 0.880272C15.1802 0.808272 15.2755 0.767822 15.375 0.767822H16.5" stroke="#0C0A09" stroke-width="2" stroke-linecap="round" stroke-linejoin="round"/>
</g>
<defs>
<clipPath id="clip0">
<rect width="24" height="24.5714" fill="white"/>
</clipPath>
</defs>
</svg>
