<svg width="24" height="24" viewBox="0 0 24 24" fill="none" xmlns="http://www.w3.org/2000/svg">
<path d="M18.7393 9.51562C18.7018 8.71406 18.5846 7.89844 18.233 7.16719C18.0402 6.76258 17.7785 6.3946 17.4596 6.07969C17.1606 5.78359 16.8251 5.52684 16.4611 5.31563C15.6596 4.8375 14.7033 4.51875 12.5049 3.8625C10.3064 3.20625 9.00004 3 9.00004 3V19.7953L12.7454 21C12.7454 21 12.75 11.6812 12.75 6.96094V6.78281C12.75 6.34687 13.1016 5.99531 13.5047 5.99531H13.5282C13.9266 5.99531 14.2547 6.34687 14.2547 6.78281V13.0312C14.7704 13.2797 15.6235 13.4672 16.2141 13.4578C16.606 13.4687 16.9939 13.3766 17.3391 13.1906C17.6953 12.9936 17.9929 12.7057 18.2016 12.3563C18.4344 11.9622 18.5918 11.5282 18.6657 11.0766C18.7533 10.5703 18.758 10.0406 18.7393 9.51562ZM4.06269 16.7719C5.34707 16.3125 8.24863 15.3891 8.24863 15.3891V13.1766C8.24863 13.1766 4.66269 14.3391 3.03144 14.9156C2.62832 15.0609 2.22051 15.1922 1.82676 15.3609C1.36738 15.5531 0.917381 15.7688 0.509569 16.0547C0.326609 16.1717 0.177836 16.3351 0.0783186 16.5281C0.0316736 16.6273 0.00555351 16.7349 0.00152599 16.8445C-0.00250153 16.954 0.0156466 17.0633 0.0548811 17.1656C0.148631 17.4047 0.326756 17.6016 0.528319 17.7562C0.893944 18.0328 1.32988 18.2016 1.76582 18.3281C3.10125 18.7714 4.50283 18.9823 5.90957 18.9516C6.58926 18.9422 7.59707 18.8625 8.25332 18.7453V16.7766C8.25332 16.7766 7.7377 16.8937 6.31738 17.3625C6.10176 17.4328 5.88613 17.5172 5.66113 17.5641C5.32811 17.6334 4.98879 17.6679 4.64863 17.6672C4.34394 17.6531 4.02988 17.6344 3.74394 17.5219C3.64082 17.475 3.52832 17.4188 3.48613 17.3063C3.44863 17.2125 3.50019 17.1187 3.56582 17.0531C3.69707 16.9172 3.88457 16.8422 4.06269 16.7719Z" fill="#0C0A09"/>
<path d="M24 16.214C23.9953 15.9328 23.8266 15.689 23.6297 15.5109C23.2969 15.2156 22.8844 15.0281 22.4719 14.8781C22.2141 14.789 22.0359 14.7234 21.7828 14.6437C20.6016 14.2593 19.35 14.1187 18.1125 14.114C17.7375 14.1281 17.0297 14.1375 16.6594 14.1796C15.6328 14.2968 13.5047 14.9015 13.5047 14.9015V17.189C13.5047 17.189 16.6688 16.1765 18.0281 15.6984C18.4867 15.5497 18.9664 15.4768 19.4484 15.4828C19.7531 15.4921 20.0672 15.5156 20.3578 15.6281C20.4609 15.6703 20.5687 15.7312 20.6156 15.839C20.6578 15.9609 20.5734 16.0734 20.4797 16.1437C20.2594 16.3218 19.9781 16.3921 19.7203 16.4906C17.7984 17.1703 13.5 18.5859 13.5 18.5859V20.789C13.5 20.789 18.9937 18.9328 21.5062 18.0328C21.9234 17.8781 22.3453 17.7468 22.7438 17.5453C23.1141 17.3578 23.4844 17.1421 23.7656 16.8281C23.9163 16.659 23.9997 16.4405 24 16.214Z" fill="#0C0A09"/>
</svg>
