<svg width="32" height="32" viewBox="0 0 32 32" fill="none" xmlns="http://www.w3.org/2000/svg">
<path d="M13.8181 4C11.8763 4 9.97805 4.57582 8.36347 5.65465C6.74889 6.73348 5.49047 8.26686 4.74736 10.0609C4.00425 11.8549 3.80982 13.829 4.18866 15.7335C4.56749 17.6381 5.50258 19.3875 6.87566 20.7606C8.24875 22.1337 9.99817 23.0688 11.9027 23.4476C13.8072 23.8264 15.7813 23.632 17.5754 22.8889C19.3694 22.1458 20.9028 20.8874 21.9816 19.2728C23.0604 17.6582 23.6362 15.76 23.6362 13.8181C23.6361 11.2142 22.6016 8.71707 20.7604 6.87585C18.9192 5.03463 16.422 4.00017 13.8181 4V4Z" stroke="#0C0A09" stroke-width="2" stroke-miterlimit="10"/>
<path d="M21.1431 21.1431L28 28" stroke="#0C0A09" stroke-width="2" stroke-miterlimit="10" stroke-linecap="round"/>
</svg>
