<svg width="47" height="47" viewBox="0 0 47 47" fill="none" xmlns="http://www.w3.org/2000/svg">
<path d="M45.5312 10.0518C43.8784 10.7699 42.1296 11.2431 40.3401 11.4563C42.2208 10.3551 43.635 8.60557 44.3177 6.53595C42.5397 7.57564 40.5977 8.30513 38.5749 8.69318C37.7231 7.80048 36.6987 7.09032 35.5639 6.60585C34.4291 6.12139 33.2076 5.87274 31.9738 5.87502C26.9782 5.87502 22.9354 9.859 22.9354 14.7701C22.9319 15.4533 23.0102 16.1343 23.1686 16.7988C19.5864 16.6309 16.0787 15.7171 12.8699 14.1159C9.66111 12.5146 6.82187 10.2612 4.53385 7.49982C3.73115 8.85302 3.30664 10.397 3.30469 11.9703C3.30469 15.0547 4.91389 17.7811 7.34375 19.3783C5.90413 19.3442 4.494 18.9631 3.23309 18.2676V18.3777C3.23309 22.6922 6.35418 26.2815 10.485 27.0985C9.70824 27.3055 8.90776 27.4104 8.10383 27.4106C7.53338 27.4116 6.96423 27.3562 6.40467 27.2453C7.55305 30.7795 10.8954 33.3498 14.8546 33.4233C11.6374 35.9026 7.68764 37.2427 3.62598 37.2328C2.90502 37.2318 2.18473 37.1888 1.46875 37.1043C5.60069 39.7428 10.4037 41.1384 15.3062 41.125C31.9545 41.125 41.0497 27.5666 41.0497 15.8074C41.0497 15.4219 41.0396 15.0363 41.0213 14.66C42.7866 13.4042 44.3138 11.8438 45.5312 10.0518Z" fill="url(#paint0_linear)"/>
<defs>
<linearGradient id="paint0_linear" x1="23.5" y1="5.875" x2="23.5" y2="41.1251" gradientUnits="userSpaceOnUse">
<stop stop-color="#982649"/>
<stop offset="1" stop-color="#F71735"/>
</linearGradient>
</defs>
</svg>
