<svg width="47" height="46" viewBox="0 0 47 46" fill="none" xmlns="http://www.w3.org/2000/svg">
<g clip-path="url(#clip0)">
<path d="M46.6916 13.3679C46.6916 9.32488 43.6532 6.07254 39.8987 6.07254C34.8131 5.83984 29.6266 5.75 24.3262 5.75H22.6739C17.3864 5.75 12.1907 5.83984 7.10515 6.07344C3.35984 6.07344 0.321359 9.34375 0.321359 13.3867C0.0918668 16.5843 -0.00543787 19.7827 6.99429e-05 22.9811C-0.00910974 26.1796 0.0949267 29.381 0.312179 32.5854C0.312179 36.6284 3.35066 39.9077 7.09597 39.9077C12.4385 40.1503 17.9188 40.2581 23.4909 40.2491C29.0721 40.2671 34.5371 40.1533 39.8858 39.9077C43.6403 39.9077 46.6788 36.6284 46.6788 32.5854C46.8991 29.378 47.0001 26.1796 46.9909 22.9721C47.0117 19.7737 46.9119 16.5723 46.6916 13.3679ZM19.002 31.7948V14.1405L32.3126 22.9632L19.002 31.7948Z" fill="url(#paint0_linear)"/>
</g>
<defs>
<linearGradient id="paint0_linear" x1="23.4965" y1="5.75" x2="23.4965" y2="40.2509" gradientUnits="userSpaceOnUse">
<stop stop-color="#982649"/>
<stop offset="1" stop-color="#F71735"/>
</linearGradient>
<clipPath id="clip0">
<rect width="47" height="46" fill="white"/>
</clipPath>
</defs>
</svg>
